<?xml version="1.0" encoding="UTF-8" standalone="no"?>
<svg
   fill="#000000"
   height="13.693975"
   width="24.00001"
   version="1.1"
   id="Capa_1"
   viewBox="0 0 7.3668629 4.2034"
   xml:space="preserve"
   sodipodi:docname="terrain.svg"
   inkscape:version="1.1.2 (0a00cf5339, 2022-02-04)"
   xmlns:inkscape="http://www.inkscape.org/namespaces/inkscape"
   xmlns:sodipodi="http://sodipodi.sourceforge.net/DTD/sodipodi-0.dtd"
   xmlns="http://www.w3.org/2000/svg"
   xmlns:svg="http://www.w3.org/2000/svg"><defs
   id="defs7" /><sodipodi:namedview
   id="namedview5"
   pagecolor="#ffffff"
   bordercolor="#666666"
   borderopacity="1.0"
   inkscape:pageshadow="2"
   inkscape:pageopacity="0.0"
   inkscape:pagecheckerboard="0"
   showgrid="false"
   fit-margin-top="0"
   fit-margin-left="0"
   fit-margin-right="0"
   fit-margin-bottom="0"
   inkscape:zoom="1.0375"
   inkscape:cx="11.566265"
   inkscape:cy="6.746988"
   inkscape:window-width="1920"
   inkscape:window-height="1008"
   inkscape:window-x="0"
   inkscape:window-y="0"
   inkscape:window-maximized="1"
   inkscape:current-layer="Capa_1" />
<path
   d="M 7.3218266,3.8434 4.5067666,0.09 c -0.0425,-0.0567 -0.10917,-0.09 -0.18,-0.09 -0.0708,0 -0.13752,0.0333 -0.18,0.09 l -1.16712,1.55619 -0.46341,-0.61788 c -0.0425,-0.0567 -0.10917,-0.09 -0.18,-0.09 -0.0708,0 -0.13749,0.0333 -0.18,0.09 L 0.04495656,3.8434 c -0.0511,0.0682 -0.0593,0.15942 -0.0212,0.23565 0.0381,0.0762 0.11601,0.12435 0.20124,0.12435 H 7.1418666 c 0.0852,0 0.16314,-0.0482 0.20124,-0.12435 0.0381,-0.0763 0.0299,-0.16749 -0.0212,-0.23565 z M 0.67495656,3.7534 2.3362366,1.53831 2.7996166,2.1562 c 0.0425,0.0567 0.10917,0.09 0.18,0.09 0.0708,0 0.13749,-0.0333 0.18,-0.09 l 1.16712,-1.5562 2.36509,3.1534 z"
   id="path2"
   style="stroke-width:0.03" />
</svg>
